<mxfile host="app.diagrams.net" modified="2023-05-05T01:57:57.422Z" agent="Mozilla/5.0 (Windows NT 10.0; Win64; x64) AppleWebKit/537.36 (KHTML, like Gecko) Chrome/112.0.0.0 Safari/537.36" etag="CqePlLQ2f1Ppq6ERyCXc" version="21.1.4" type="device">
  <diagram name="Page-1" id="0_9Hch3_0qO4CuZq6n5x">
    <mxGraphModel dx="1674" dy="796" grid="1" gridSize="10" guides="1" tooltips="1" connect="1" arrows="1" fold="1" page="1" pageScale="1" pageWidth="850" pageHeight="1100" math="0" shadow="0">
      <root>
        <mxCell id="0" />
        <mxCell id="1" parent="0" />
        <mxCell id="VP-2pwFD5-n10wOqOIEK-31" value="" style="edgeStyle=orthogonalEdgeStyle;rounded=0;orthogonalLoop=1;jettySize=auto;html=1;" parent="1" source="VP-2pwFD5-n10wOqOIEK-1" target="VP-2pwFD5-n10wOqOIEK-2" edge="1">
          <mxGeometry relative="1" as="geometry" />
        </mxCell>
        <mxCell id="VP-2pwFD5-n10wOqOIEK-1" value="" style="ellipse;whiteSpace=wrap;html=1;aspect=fixed;fillColor=#000000;" parent="1" vertex="1">
          <mxGeometry x="360" y="100" width="80" height="80" as="geometry" />
        </mxCell>
        <mxCell id="VP-2pwFD5-n10wOqOIEK-2" value="Home Page" style="ellipse;whiteSpace=wrap;html=1;" parent="1" vertex="1">
          <mxGeometry x="340" y="250" width="120" height="80" as="geometry" />
        </mxCell>
        <mxCell id="VP-2pwFD5-n10wOqOIEK-3" value="Sort Items" style="ellipse;whiteSpace=wrap;html=1;" parent="1" vertex="1">
          <mxGeometry x="610" y="250" width="120" height="80" as="geometry" />
        </mxCell>
        <mxCell id="VP-2pwFD5-n10wOqOIEK-29" value="" style="edgeStyle=orthogonalEdgeStyle;rounded=0;orthogonalLoop=1;jettySize=auto;html=1;" parent="1" source="VP-2pwFD5-n10wOqOIEK-4" target="VP-2pwFD5-n10wOqOIEK-26" edge="1">
          <mxGeometry relative="1" as="geometry" />
        </mxCell>
        <mxCell id="VP-2pwFD5-n10wOqOIEK-4" value="Login" style="ellipse;whiteSpace=wrap;html=1;" parent="1" vertex="1">
          <mxGeometry x="70" y="370" width="120" height="80" as="geometry" />
        </mxCell>
        <mxCell id="VP-2pwFD5-n10wOqOIEK-5" value="Post Product" style="ellipse;whiteSpace=wrap;html=1;" parent="1" vertex="1">
          <mxGeometry x="260" y="370" width="120" height="80" as="geometry" />
        </mxCell>
        <mxCell id="VP-2pwFD5-n10wOqOIEK-7" value="" style="endArrow=classic;html=1;rounded=0;exitX=0.5;exitY=1;exitDx=0;exitDy=0;" parent="1" source="VP-2pwFD5-n10wOqOIEK-2" edge="1">
          <mxGeometry width="50" height="50" relative="1" as="geometry">
            <mxPoint x="260" y="400" as="sourcePoint" />
            <mxPoint x="400" y="670" as="targetPoint" />
          </mxGeometry>
        </mxCell>
        <mxCell id="VP-2pwFD5-n10wOqOIEK-10" value="" style="endArrow=classic;html=1;rounded=0;exitX=0;exitY=0.638;exitDx=0;exitDy=0;entryX=0.608;entryY=0.05;entryDx=0;entryDy=0;entryPerimeter=0;exitPerimeter=0;" parent="1" source="VP-2pwFD5-n10wOqOIEK-2" edge="1" target="VP-2pwFD5-n10wOqOIEK-4">
          <mxGeometry width="50" height="50" relative="1" as="geometry">
            <mxPoint x="160" y="370" as="sourcePoint" />
            <mxPoint x="160" y="380" as="targetPoint" />
            <Array as="points">
              <mxPoint x="143" y="301" />
            </Array>
          </mxGeometry>
        </mxCell>
        <mxCell id="VP-2pwFD5-n10wOqOIEK-12" value="" style="endArrow=classic;html=1;rounded=0;exitX=0.358;exitY=0;exitDx=0;exitDy=0;exitPerimeter=0;" parent="1" source="VP-2pwFD5-n10wOqOIEK-4" edge="1">
          <mxGeometry width="50" height="50" relative="1" as="geometry">
            <mxPoint x="260" y="400" as="sourcePoint" />
            <mxPoint x="340" y="282" as="targetPoint" />
            <Array as="points">
              <mxPoint x="113" y="282" />
            </Array>
          </mxGeometry>
        </mxCell>
        <mxCell id="VP-2pwFD5-n10wOqOIEK-13" value="Provide Valid Login Info" style="text;html=1;align=center;verticalAlign=middle;resizable=0;points=[];autosize=1;strokeColor=none;fillColor=none;" parent="1" vertex="1">
          <mxGeometry x="95" y="245" width="150" height="30" as="geometry" />
        </mxCell>
        <mxCell id="VP-2pwFD5-n10wOqOIEK-14" value="Click Login" style="text;html=1;align=center;verticalAlign=middle;resizable=0;points=[];autosize=1;strokeColor=none;fillColor=none;" parent="1" vertex="1">
          <mxGeometry x="170" y="300" width="80" height="30" as="geometry" />
        </mxCell>
        <mxCell id="VP-2pwFD5-n10wOqOIEK-16" value="" style="endArrow=classic;html=1;rounded=0;exitX=0.933;exitY=0.688;exitDx=0;exitDy=0;exitPerimeter=0;" parent="1" source="VP-2pwFD5-n10wOqOIEK-2" edge="1">
          <mxGeometry width="50" height="50" relative="1" as="geometry">
            <mxPoint x="520" y="400" as="sourcePoint" />
            <mxPoint x="620" y="305" as="targetPoint" />
          </mxGeometry>
        </mxCell>
        <mxCell id="VP-2pwFD5-n10wOqOIEK-17" value="" style="endArrow=classic;html=1;rounded=0;exitX=0;exitY=0.375;exitDx=0;exitDy=0;entryX=0.967;entryY=0.375;entryDx=0;entryDy=0;entryPerimeter=0;exitPerimeter=0;" parent="1" source="VP-2pwFD5-n10wOqOIEK-3" target="VP-2pwFD5-n10wOqOIEK-2" edge="1">
          <mxGeometry width="50" height="50" relative="1" as="geometry">
            <mxPoint x="520" y="400" as="sourcePoint" />
            <mxPoint x="570" y="350" as="targetPoint" />
            <Array as="points">
              <mxPoint x="530" y="280" />
            </Array>
          </mxGeometry>
        </mxCell>
        <mxCell id="VP-2pwFD5-n10wOqOIEK-18" value="Search Bar" style="ellipse;whiteSpace=wrap;html=1;" parent="1" vertex="1">
          <mxGeometry x="540" y="370" width="120" height="80" as="geometry" />
        </mxCell>
        <mxCell id="VP-2pwFD5-n10wOqOIEK-19" value="" style="endArrow=classic;html=1;rounded=0;exitX=0.733;exitY=1;exitDx=0;exitDy=0;entryX=0;entryY=0.5;entryDx=0;entryDy=0;exitPerimeter=0;" parent="1" source="VP-2pwFD5-n10wOqOIEK-2" target="VP-2pwFD5-n10wOqOIEK-18" edge="1">
          <mxGeometry width="50" height="50" relative="1" as="geometry">
            <mxPoint x="330" y="600" as="sourcePoint" />
            <mxPoint x="380" y="550" as="targetPoint" />
            <Array as="points">
              <mxPoint x="428" y="410" />
            </Array>
          </mxGeometry>
        </mxCell>
        <mxCell id="VP-2pwFD5-n10wOqOIEK-48" value="" style="edgeStyle=orthogonalEdgeStyle;rounded=0;orthogonalLoop=1;jettySize=auto;html=1;" parent="1" source="VP-2pwFD5-n10wOqOIEK-21" target="VP-2pwFD5-n10wOqOIEK-23" edge="1">
          <mxGeometry relative="1" as="geometry" />
        </mxCell>
        <mxCell id="VP-2pwFD5-n10wOqOIEK-21" value="Contact Seller" style="ellipse;whiteSpace=wrap;html=1;" parent="1" vertex="1">
          <mxGeometry x="340" y="670" width="120" height="80" as="geometry" />
        </mxCell>
        <mxCell id="VP-2pwFD5-n10wOqOIEK-22" value="" style="endArrow=classic;html=1;rounded=0;exitX=0.5;exitY=1;exitDx=0;exitDy=0;entryX=0.5;entryY=0;entryDx=0;entryDy=0;" parent="1" target="VP-2pwFD5-n10wOqOIEK-21" edge="1">
          <mxGeometry width="50" height="50" relative="1" as="geometry">
            <mxPoint x="400" y="630" as="sourcePoint" />
            <mxPoint x="380" y="550" as="targetPoint" />
          </mxGeometry>
        </mxCell>
        <mxCell id="VP-2pwFD5-n10wOqOIEK-23" value="Remove Listing" style="ellipse;whiteSpace=wrap;html=1;" parent="1" vertex="1">
          <mxGeometry x="170" y="670" width="120" height="80" as="geometry" />
        </mxCell>
        <mxCell id="VP-2pwFD5-n10wOqOIEK-25" value="" style="endArrow=classic;html=1;rounded=0;exitX=0.5;exitY=1;exitDx=0;exitDy=0;entryX=0.5;entryY=0;entryDx=0;entryDy=0;" parent="1" source="VP-2pwFD5-n10wOqOIEK-5" target="VP-2pwFD5-n10wOqOIEK-23" edge="1">
          <mxGeometry width="50" height="50" relative="1" as="geometry">
            <mxPoint x="330" y="600" as="sourcePoint" />
            <mxPoint x="380" y="550" as="targetPoint" />
            <Array as="points">
              <mxPoint x="230" y="450" />
            </Array>
          </mxGeometry>
        </mxCell>
        <mxCell id="VP-2pwFD5-n10wOqOIEK-27" style="edgeStyle=orthogonalEdgeStyle;rounded=0;orthogonalLoop=1;jettySize=auto;html=1;entryX=0.325;entryY=0.938;entryDx=0;entryDy=0;entryPerimeter=0;exitX=0.325;exitY=0.025;exitDx=0;exitDy=0;exitPerimeter=0;" parent="1" source="VP-2pwFD5-n10wOqOIEK-26" target="VP-2pwFD5-n10wOqOIEK-4" edge="1">
          <mxGeometry relative="1" as="geometry">
            <mxPoint x="110" y="460" as="targetPoint" />
          </mxGeometry>
        </mxCell>
        <mxCell id="VP-2pwFD5-n10wOqOIEK-26" value="Create Account" style="ellipse;whiteSpace=wrap;html=1;" parent="1" vertex="1">
          <mxGeometry x="70" y="510" width="120" height="80" as="geometry" />
        </mxCell>
        <mxCell id="VP-2pwFD5-n10wOqOIEK-30" value="" style="endArrow=classic;html=1;rounded=0;exitX=1;exitY=0.5;exitDx=0;exitDy=0;" parent="1" source="VP-2pwFD5-n10wOqOIEK-5" edge="1">
          <mxGeometry width="50" height="50" relative="1" as="geometry">
            <mxPoint x="260" y="450" as="sourcePoint" />
            <mxPoint x="390" y="330" as="targetPoint" />
            <Array as="points">
              <mxPoint x="390" y="410" />
            </Array>
          </mxGeometry>
        </mxCell>
        <mxCell id="VP-2pwFD5-n10wOqOIEK-32" value="" style="endArrow=classic;html=1;rounded=0;exitX=0;exitY=0;exitDx=0;exitDy=0;entryX=1;entryY=1;entryDx=0;entryDy=0;" parent="1" source="VP-2pwFD5-n10wOqOIEK-18" target="VP-2pwFD5-n10wOqOIEK-2" edge="1">
          <mxGeometry width="50" height="50" relative="1" as="geometry">
            <mxPoint x="530" y="450" as="sourcePoint" />
            <mxPoint x="580" y="400" as="targetPoint" />
            <Array as="points">
              <mxPoint x="442" y="382" />
            </Array>
          </mxGeometry>
        </mxCell>
        <mxCell id="VP-2pwFD5-n10wOqOIEK-33" value="Favorites Page" style="ellipse;whiteSpace=wrap;html=1;" parent="1" vertex="1">
          <mxGeometry x="730" y="550" width="120" height="80" as="geometry" />
        </mxCell>
        <mxCell id="VP-2pwFD5-n10wOqOIEK-36" value="" style="endArrow=classic;html=1;rounded=0;entryX=0.5;entryY=0;entryDx=0;entryDy=0;" parent="1" target="VP-2pwFD5-n10wOqOIEK-33" edge="1">
          <mxGeometry width="50" height="50" relative="1" as="geometry">
            <mxPoint x="420" y="250" as="sourcePoint" />
            <mxPoint x="419" y="200" as="targetPoint" />
            <Array as="points">
              <mxPoint x="420" y="220" />
              <mxPoint x="790" y="220" />
            </Array>
          </mxGeometry>
        </mxCell>
        <mxCell id="VP-2pwFD5-n10wOqOIEK-40" value="No account" style="text;html=1;align=center;verticalAlign=middle;resizable=0;points=[];autosize=1;strokeColor=none;fillColor=none;" parent="1" vertex="1">
          <mxGeometry x="130" y="470" width="80" height="30" as="geometry" />
        </mxCell>
        <mxCell id="VP-2pwFD5-n10wOqOIEK-41" value="Account created" style="text;html=1;align=center;verticalAlign=middle;resizable=0;points=[];autosize=1;strokeColor=none;fillColor=none;" parent="1" vertex="1">
          <mxGeometry y="470" width="110" height="30" as="geometry" />
        </mxCell>
        <mxCell id="VP-2pwFD5-n10wOqOIEK-44" value="Product found" style="text;html=1;strokeColor=none;fillColor=none;align=center;verticalAlign=middle;whiteSpace=wrap;rounded=0;" parent="1" vertex="1">
          <mxGeometry x="400" y="500" width="80" height="30" as="geometry" />
        </mxCell>
        <mxCell id="VP-2pwFD5-n10wOqOIEK-45" value="Only if logged in" style="text;html=1;strokeColor=none;fillColor=none;align=center;verticalAlign=middle;whiteSpace=wrap;rounded=0;" parent="1" vertex="1">
          <mxGeometry x="500" y="190" width="120" height="30" as="geometry" />
        </mxCell>
        <mxCell id="VP-2pwFD5-n10wOqOIEK-46" value="Changes item order on home" style="text;html=1;strokeColor=none;fillColor=none;align=center;verticalAlign=middle;whiteSpace=wrap;rounded=0;" parent="1" vertex="1">
          <mxGeometry x="450" y="255" width="170" height="30" as="geometry" />
        </mxCell>
        <mxCell id="qgNrxb4sAlzPaWbf-cDd-2" value="" style="endArrow=classic;html=1;rounded=0;exitX=0;exitY=0;exitDx=0;exitDy=0;" parent="1" source="VP-2pwFD5-n10wOqOIEK-33" edge="1">
          <mxGeometry width="50" height="50" relative="1" as="geometry">
            <mxPoint x="650" y="600" as="sourcePoint" />
            <mxPoint x="450" y="310" as="targetPoint" />
            <Array as="points">
              <mxPoint x="690" y="360" />
            </Array>
          </mxGeometry>
        </mxCell>
        <mxCell id="a6IURDleadMq8SYmJBuB-2" value="" style="endArrow=classic;html=1;rounded=0;exitX=1;exitY=0;exitDx=0;exitDy=0;entryX=0;entryY=1;entryDx=0;entryDy=0;" edge="1" parent="1" source="VP-2pwFD5-n10wOqOIEK-4" target="VP-2pwFD5-n10wOqOIEK-2">
          <mxGeometry width="50" height="50" relative="1" as="geometry">
            <mxPoint x="400" y="430" as="sourcePoint" />
            <mxPoint x="380" y="330" as="targetPoint" />
            <Array as="points">
              <mxPoint x="172" y="320" />
            </Array>
          </mxGeometry>
        </mxCell>
        <mxCell id="a6IURDleadMq8SYmJBuB-3" value="Logout" style="text;html=1;strokeColor=none;fillColor=none;align=center;verticalAlign=middle;whiteSpace=wrap;rounded=0;" vertex="1" parent="1">
          <mxGeometry x="200" y="340" width="60" height="30" as="geometry" />
        </mxCell>
        <mxCell id="a6IURDleadMq8SYmJBuB-8" value="" style="endArrow=classic;html=1;rounded=0;entryX=0.5;entryY=0;entryDx=0;entryDy=0;" edge="1" parent="1" target="VP-2pwFD5-n10wOqOIEK-5">
          <mxGeometry width="50" height="50" relative="1" as="geometry">
            <mxPoint x="380" y="330" as="sourcePoint" />
            <mxPoint x="370" y="390" as="targetPoint" />
            <Array as="points">
              <mxPoint x="320" y="330" />
            </Array>
          </mxGeometry>
        </mxCell>
        <mxCell id="a6IURDleadMq8SYmJBuB-10" value="Only if logged in" style="text;html=1;strokeColor=none;fillColor=none;align=center;verticalAlign=middle;whiteSpace=wrap;rounded=0;" vertex="1" parent="1">
          <mxGeometry x="326" y="337" width="60" height="30" as="geometry" />
        </mxCell>
      </root>
    </mxGraphModel>
  </diagram>
</mxfile>
